# xmcd
#
# Track frame offsets: 
#        150
#        24488
#        47198
#        64853
#        88676
#
# Disc length: 1368 seconds
#
# Revision: 0
# Processed by: cddbd v1.5.2PL0 Copyright (c) Steve Scherf et al.
# Submitted via: ExactAudioCopy v0.99pb4
#
DISCID=3c055605
DTITLE=New York Dolls - 'Cause I Said So - Bonus Disc - Live From Plan
DTITLE=et Earth
DYEAR=2009
DGENRE=Rock
TTITLE0=Frankenstein (Live)
TTITLE1=Subway Train (Live)
TTITLE2=Mystery Girls (Live)
TTITLE3=It's Too Late (Live)
TTITLE4=Bad Girl (Live)
EXTD=
EXTT0=
EXTT1=
EXTT2=
EXTT3=
EXTT4=
PLAYORDER=
